<svg width="200" height="200" xmlns="http://www.w3.org/2000/svg">
 <filter width="200%" height="200%" y="-50%" x="-50%" id="svg_9_blur">
  <feGaussianBlur stdDeviation="0"/>
 </filter>

 <g>
  <title>Layer 1</title>
  <path d="m41,0.763l120,0c22.091,0 40,17.909 40,40l0,120c0,22.091 -17.909,40 -40,40l-120,0c-22.091,0 -40,-17.909 -40,-40l0,-120c0,-22.091 17.909,-40 40,-40z" fill="#3FAC87" id="svg_1"/>
  <g filter="url(#svg_9_blur)" id="svg_9">
   <path id="svg_2" d="m63.815,51l76,0c1.104,0 2,0.896 2,2l0,96c0,1.104 -0.896,2 -2,2l-76,0c-1.104,0 -2,-0.896 -2,-2l0,-96c0,-1.104 0.896,-2 2,-2z" fill="#FFFFFF"/>
  </g>
  <rect height="18.792" width="46.842" fill="#3FAC87" transform="matrix(-0.7071,-0.7071,0.7071,-0.7071,196.8931,190.3464) " y="45" x="114.447" id="svg_11"/>
 </g>
 <g>
  <title>Layer 1</title>
  <path d="m40,0.763l120,0c22.091,0 40,17.909 40,40l0,120c0,22.091 -17.909,40 -40,40l-120,0c-22.091,0 -40,-17.909 -40,-40l0,-120c0,-22.091 17.909,-40 40,-40z" fill="#3FAC87" id="svg_1_1_"/>
  <g filter="url(#svg_9_blur)" opacity="0.3" id="svg_9_4_">
   <path id="svg_3" d="m55.815,57l76,0c1.104,0 2,0.896 2,2l0,96c0,1.104 -0.896,2 -2,2l-76,0c-1.104,0 -2,-0.896 -2,-2l0,-96c0,-1.104 0.896,-2 2,-2z" fill="#323232"/>
  </g>
  <g filter="url(#svg_9_blur)" id="svg_9_1_">
   <path id="svg_4" d="m62.815,51l76,0c1.104,0 2,0.896 2,2l0,96c0,1.104 -0.896,2 -2,2l-76,0c-1.104,0 -2,-0.896 -2,-2l0,-96c0,-1.104 0.896,-2 2,-2z" fill="#FFFFFF"/>
  </g>
  <rect height="18.792" width="46.842" fill="#3FAC87" transform="matrix(-0.7071,-0.7071,0.7071,-0.7071,195.186,189.6393) " y="45" x="113.447" id="svg_11_1_"/>
 </g>
 <g>
  <title>background</title>
  <rect fill="none" id="canvas_background" height="202" width="202" y="-1" x="-1"/>
 </g>
</svg>